M48
INCH,TZ
T1C0.025
T2C0.032
T3C0.040
T4C0.120
%
G90
G05
T1
X68500Y-45000
X69000Y-45000
X69500Y-41000
X72000Y-40000
X75000Y-36500
T2
X68000Y-36500
X68000Y-38000
X68000Y-39500
X69000Y-36500
X69000Y-38000
X69000Y-39500
X70500Y-46500
X70500Y-48500
X70500Y-50500
X71000Y-36000
X71000Y-37000
X71000Y-38000
X71000Y-39000
X71000Y-41500
X71000Y-42500
X71000Y-43500
X71000Y-44500
X71500Y-46500
X71500Y-48500
X71500Y-50500
X74000Y-36000
X74000Y-37000
X74000Y-38000
X74000Y-39000
X74000Y-41500
X74000Y-42500
X74000Y-43500
X74000Y-44500
X75500Y-39500
X76000Y-42000
X76000Y-45000
X76500Y-39500
T3
X67000Y-46000
X67000Y-47000
X67000Y-48000
X67000Y-50500
X68000Y-41500
X68000Y-44000
X68000Y-50500
X69000Y-41500
X69000Y-44000
X69000Y-50500
X69500Y-46000
X69500Y-47000
X69500Y-48000
X71500Y-34000
X72500Y-34000
X73500Y-34000
X73500Y-46500
X73500Y-48500
X73500Y-50500
X73500Y-51500
X74500Y-46500
X74500Y-48500
X76500Y-34000
X76500Y-35000
X76500Y-36000
X76500Y-37000
X76500Y-38000
T4
X67500Y-34500
X76000Y-51500
T0
M30
